# xmcd CD database file
#
# Track frame offsets:
#	150
#	13855
#	32555
#	50360
#	67630
#	79420
#	93130
#	104392
#	120692
#	135482
#	145095
#	167292
#	181125
#	194505
#	209472
#	219022
#	227262
#	238615
#	256630
#	267827
#	280207
#	289637
#	300165
#
# Disc length: 4382 seconds
#
# Revision: 4
# Processed by: cddbd v1.5.2PL0 Copyright (c) Steve Scherf et al.
# Submitted via: CDex 1.83
#
DISCID=26111c17
DTITLE=Parsons, Gram - (the Flying Burrito Brothers)  Hot Burritos  Anthology 1969-1972  [CD1]
DYEAR=2000
DGENRE=Rock
TTITLE0=Christine's Tune (Devil In Disguise) (1969 Gilded Palace Of Sin)
TTITLE1=Sin City (1969 Gilded Palace Of Sin)
TTITLE2=Do Right Woman (1969 Gilded Palace Of Sin)
TTITLE3=Dark End Of The Street (1969 Gilded Palace Of Sin)
TTITLE4=My Uncle (1969 Gilded Palace Of Sin)
TTITLE5=Wheels (1969 Gilded Palace Of Sin)
TTITLE6=Juanita (1969 Gilded Palace Of Sin)
TTITLE7=Hot Burrito #1 (1969 Gilded Palace Of Sin)
TTITLE8=Hot Burrito #2 (1969 Gilded Palace Of Sin)
TTITLE9=Do You Know How It Feels (1969 Gilded Palace Of Sin)
TTITLE10=Hippie Boy (1969 Gilded Palace Of Sin)
TTITLE11=The Train Song (1969 Gilded Palace Of Sin)
TTITLE12=Lazy Days (1970 Burrito Deluxe)
TTITLE13=Image Of Me (1970 Burrito Deluxe)
TTITLE14=High Fashion Queen (1970 Burrito Deluxe)
TTITLE15=If You Gotta Go (1970 Burrito Deluxe)
TTITLE16=Man In The Fog (1970 Burrito Deluxe)
TTITLE17=Farther Along (1970 Burrito Deluxe)
TTITLE18=Older Guys (1970 Burrito Deluxe)
TTITLE19=Cody, Cody (1970 Burrito Deluxe)
TTITLE20=God's Own Singer (1970 Burrito Deluxe)
TTITLE21=Down In The Churchyard (1970 Burrito Deluxe)
TTITLE22=Wild Horses (1970 Burrito Deluxe)
EXTD=2 Disc set\r\n24-bit Re-mastered from the original master tapes YEAR: 2000
EXTT0=
EXTT1=
EXTT2=
EXTT3=
EXTT4=
EXTT5=
EXTT6=
EXTT7=
EXTT8=
EXTT9=
EXTT10=
EXTT11=
EXTT12=
EXTT13=
EXTT14=
EXTT15=
EXTT16=
EXTT17=
EXTT18=
EXTT19=
EXTT20=
EXTT21=
EXTT22=
PLAYORDER=
